<?xml version="1.0" encoding="utf-8"?>
<!-- Generator: Adobe Illustrator 25.2.1, SVG Export Plug-In . SVG Version: 6.00 Build 0)  -->
<svg version="1.1" id="Camada_1" xmlns="http://www.w3.org/2000/svg" xmlns:xlink="http://www.w3.org/1999/xlink" x="0px" y="0px"
	 viewBox="0 0 100 100" style="enable-background:new 0 0 100 100;" xml:space="preserve">
<path d="M71,47.8h2.8l-0.4,3.4h-2.8L71,47.8z M94.4,28.8v42.4c-0.1,2.7-1.5,5.1-3.8,6.7L53.8,99.1c-2.1,1.2-5.6,1.2-7.7,0L9.4,77.9
	c-2.2-1.5-3.7-3.8-3.8-6.7V28.8c0-2.4,1.7-5.4,3.8-6.7L46.1,0.9c2.1-1.2,5.6-1.2,7.7,0l36.7,21.2C92.8,23.6,94.3,26.2,94.4,28.8z
	 M75.6,64.8l-12.8-7.4c-8.6,13.7-27.4,7-27.6-7.4c0.7-15.6,19.9-20.2,27.6-7.4l12.8-7.4C58.9,8.3,20.2,21.1,20.4,50
	C21.1,81.2,60.9,90.4,75.6,64.8z M78.7,45.4h-2.2l0.4-3.8h-2.4l-0.4,3.8h-2.8l0.4-3.8h-2.4l-0.4,3.8h-2.3v2.4h2.1l-0.4,3.4h-2.4v2.4
	H68l-0.4,4.2H70l0.4-4.2h2.8l-0.4,4.2h2.5l0.4-4.2H78v-2.4h-2.1l0.4-3.4h2.4V45.4z"/>
</svg>
