<?xml version="1.0" encoding="utf-8"?>
<!-- Generator: Adobe Illustrator 25.2.1, SVG Export Plug-In . SVG Version: 6.00 Build 0)  -->
<svg version="1.1" id="Camada_1" xmlns="http://www.w3.org/2000/svg" xmlns:xlink="http://www.w3.org/1999/xlink" x="0px" y="0px"
	 viewBox="0 0 100 100" style="enable-background:new 0 0 100 100;" xml:space="preserve">
<path d="M98.1,45.5L54.4,1.9c-2.5-2.5-6.6-2.5-9.1,0l-9.1,9.1l11.5,11.5c2.7-0.9,5.7-0.3,7.9,1.8c2.1,2.1,2.7,5.2,1.8,7.9l11.1,11.1
	c2.7-0.9,5.8-0.3,7.9,1.8c3,3,3,7.8,0,10.8c-3,3-7.8,3-10.8,0c-2.3-2.3-2.8-5.6-1.7-8.3L53.6,37.3l0,27.2c0.7,0.4,1.4,0.9,2,1.4
	c3,3,3,7.8,0,10.8c-3,3-7.8,3-10.8,0c-3-3-3-7.8,0-10.8c0.7-0.7,1.6-1.3,2.5-1.7V36.8c-0.9-0.4-1.8-1-2.5-1.7
	c-2.3-2.3-2.8-5.6-1.7-8.4L31.8,15.4L1.9,45.3c-2.5,2.5-2.5,6.6,0,9.1l43.6,43.6c2.5,2.5,6.6,2.5,9.1,0l43.4-43.4
	C100.6,52.1,100.6,48,98.1,45.5"/>
</svg>
